<svg xmlns="http://www.w3.org/2000/svg" xmlns:xlink="http://www.w3.org/1999/xlink" width="500" zoomAndPan="magnify" viewBox="0 0 375 374.999991" height="500" preserveAspectRatio="xMidYMid meet" version="1.0"><defs><g/><clipPath id="id1"><path d="M 0 102.917969 L 375 102.917969 L 375 179 L 0 179 Z M 0 102.917969 " clip-rule="nonzero"/></clipPath><clipPath id="id2"><path d="M 0 80 L 375 80 L 375 283.285156 L 0 283.285156 Z M 0 80 " clip-rule="nonzero"/></clipPath><clipPath id="id3"><path d="M 176 195.660156 L 199 195.660156 L 199 218.910156 L 176 218.910156 Z M 176 195.660156 " clip-rule="nonzero"/></clipPath><clipPath id="id4"><path d="M 140 92 L 261.71875 92 L 261.71875 266.578125 L 140 266.578125 Z M 140 92 " clip-rule="nonzero"/></clipPath><clipPath id="id5"><path d="M 113.277344 120 L 175 120 L 175 184 L 113.277344 184 Z M 113.277344 120 " clip-rule="nonzero"/></clipPath><clipPath id="id6"><path d="M 113.277344 92 L 235 92 L 235 266.578125 L 113.277344 266.578125 Z M 113.277344 92 " clip-rule="nonzero"/></clipPath><clipPath id="id7"><path d="M 200 120 L 261.777344 120 L 261.777344 184 L 200 184 Z M 200 120 " clip-rule="nonzero"/></clipPath></defs><g clip-path="url(#id1)"><path fill="#38b6ff" d="M 361.335938 178.339844 C 355.371094 177.503906 351.195312 172.125 351.195312 166.148438 C 351.195312 161.007812 351.195312 153.480469 351.195312 146.425781 C 351.195312 135.667969 342.484375 126.824219 331.628906 126.824219 L 43.492188 126.824219 C 32.753906 126.824219 23.925781 135.550781 23.925781 146.425781 L 23.925781 166.148438 C 23.925781 172.484375 19.152344 178.101562 12.828125 178.460938 C 5.789062 178.9375 0.0625 173.441406 0.0625 166.507812 L 0.0625 142.125 C 0.0625 120.488281 17.601562 102.917969 39.195312 102.917969 L 335.804688 102.917969 C 357.398438 102.917969 374.9375 120.488281 374.9375 142.125 L 374.9375 166.507812 C 374.9375 173.679688 368.734375 179.417969 361.335938 178.339844 Z M 361.335938 178.339844 " fill-opacity="1" fill-rule="nonzero"/></g><g clip-path="url(#id2)"><path fill="#000000" d="M 292.042969 164.5 C 281.507812 116.761719 238.988281 80.996094 188.171875 80.996094 C 137.359375 80.996094 94.839844 116.6875 84.300781 164.5 L 0.0117188 164.5 L 0.0117188 283.285156 L 374.988281 283.285156 L 374.988281 164.5 L 292.042969 164.5 " fill-opacity="1" fill-rule="nonzero"/></g><path fill="#38b6ff" d="M 175.433594 207.335938 L 158.277344 201.5625 C 158.277344 201.5625 114.113281 204.691406 6.339844 207.335938 L 6.945312 207.335938 C 114.71875 209.984375 158.878906 213.109375 158.878906 213.109375 L 176.035156 207.335938 Z M 175.433594 207.335938 " fill-opacity="1" fill-rule="nonzero"/><path fill="#38b6ff" d="M 199.597656 207.335938 L 216.753906 201.5625 C 216.753906 201.5625 260.914062 204.691406 368.691406 207.335938 L 368.085938 207.335938 C 260.308594 209.984375 216.148438 213.109375 216.148438 213.109375 L 198.992188 207.335938 Z M 199.597656 207.335938 " fill-opacity="1" fill-rule="nonzero"/><g clip-path="url(#id3)"><path fill="#38b6ff" d="M 198.992188 207.277344 C 198.992188 208.039062 198.917969 208.796875 198.769531 209.542969 C 198.625 210.292969 198.40625 211.019531 198.117188 211.722656 C 197.828125 212.425781 197.476562 213.097656 197.058594 213.730469 C 196.636719 214.367188 196.164062 214.953125 195.628906 215.492188 C 195.097656 216.03125 194.515625 216.511719 193.890625 216.9375 C 193.261719 217.359375 192.601562 217.71875 191.90625 218.011719 C 191.210938 218.300781 190.492188 218.523438 189.753906 218.671875 C 189.011719 218.820312 188.265625 218.894531 187.511719 218.894531 C 186.761719 218.894531 186.011719 218.820312 185.273438 218.671875 C 184.535156 218.523438 183.816406 218.300781 183.121094 218.011719 C 182.425781 217.71875 181.761719 217.359375 181.136719 216.9375 C 180.511719 216.511719 179.929688 216.03125 179.398438 215.492188 C 178.863281 214.953125 178.390625 214.367188 177.96875 213.730469 C 177.550781 213.097656 177.199219 212.425781 176.910156 211.722656 C 176.621094 211.019531 176.402344 210.292969 176.257812 209.542969 C 176.109375 208.796875 176.035156 208.039062 176.035156 207.277344 C 176.035156 206.515625 176.109375 205.757812 176.257812 205.011719 C 176.402344 204.261719 176.621094 203.535156 176.910156 202.832031 C 177.199219 202.125 177.550781 201.457031 177.96875 200.820312 C 178.390625 200.1875 178.863281 199.601562 179.398438 199.0625 C 179.929688 198.523438 180.511719 198.039062 181.136719 197.617188 C 181.761719 197.191406 182.425781 196.835938 183.121094 196.542969 C 183.816406 196.25 184.535156 196.03125 185.273438 195.882812 C 186.011719 195.734375 186.761719 195.660156 187.511719 195.660156 C 188.265625 195.660156 189.011719 195.734375 189.753906 195.882812 C 190.492188 196.03125 191.210938 196.25 191.90625 196.542969 C 192.601562 196.835938 193.261719 197.191406 193.890625 197.617188 C 194.515625 198.039062 195.097656 198.523438 195.628906 199.0625 C 196.164062 199.601562 196.636719 200.1875 197.058594 200.820312 C 197.476562 201.457031 197.828125 202.125 198.117188 202.832031 C 198.40625 203.535156 198.625 204.261719 198.769531 205.011719 C 198.917969 205.757812 198.992188 206.515625 198.992188 207.277344 Z M 198.992188 207.277344 " fill-opacity="1" fill-rule="nonzero"/></g><g clip-path="url(#id4)"><path fill="#737373" d="M 261.507812 218.761719 C 230.671875 232.636719 199.566406 245.738281 168.382812 258.59375 L 156.6875 263.4375 L 150.824219 265.816406 L 150.089844 266.101562 C 149.894531 266.195312 149.691406 266.269531 149.476562 266.324219 C 149.214844 266.425781 148.941406 266.492188 148.664062 266.527344 C 147.484375 266.734375 146.335938 266.617188 145.222656 266.183594 C 144.816406 266.023438 144.433594 265.828125 144.070312 265.589844 C 143.707031 265.355469 143.367188 265.089844 143.058594 264.785156 C 142.746094 264.484375 142.46875 264.152344 142.222656 263.796875 C 141.980469 263.4375 141.773438 263.0625 141.601562 262.664062 C 141.433594 262.265625 141.304688 261.851562 141.214844 261.429688 C 141.128906 261.003906 141.082031 260.578125 141.082031 260.144531 C 141.078125 259.710938 141.121094 259.28125 141.203125 258.855469 C 141.285156 258.429688 141.410156 258.019531 141.574219 257.617188 L 142.269531 256.050781 L 143.550781 253.164062 L 146.078125 247.40625 L 151.210938 235.851562 L 172.089844 189.792969 L 193.355469 143.917969 C 200.5625 128.722656 207.714844 113.402344 215.027344 98.308594 C 215.027344 98.308594 215.027344 98.53125 215.027344 98.511719 C 215.027344 98.492188 215.027344 98.511719 215.128906 98.511719 C 215.230469 98.511719 215.128906 98.511719 215.128906 98.511719 L 213.886719 99.449219 L 211.359375 101.359375 L 201.296875 109.007812 L 181.050781 124.207031 C 167.503906 134.253906 153.960938 144.304688 140.191406 154.089844 C 152.941406 142.820312 165.773438 131.917969 178.667969 120.992188 L 198.078125 104.71875 L 207.816406 96.578125 L 210.261719 94.546875 L 211.480469 93.527344 C 212.335938 92.851562 213.300781 92.425781 214.375 92.246094 C 214.777344 92.1875 215.179688 92.171875 215.582031 92.195312 C 215.988281 92.21875 216.386719 92.28125 216.777344 92.382812 C 217.167969 92.484375 217.546875 92.625 217.910156 92.800781 C 218.277344 92.976562 218.621094 93.1875 218.941406 93.433594 C 219.265625 93.679688 219.558594 93.953125 219.828125 94.257812 C 220.09375 94.558594 220.328125 94.886719 220.53125 95.238281 C 220.734375 95.589844 220.898438 95.957031 221.027344 96.339844 C 221.160156 96.722656 221.25 97.113281 221.300781 97.515625 C 221.425781 98.617188 221.277344 99.683594 220.851562 100.710938 C 214.128906 116.292969 207.203125 131.550781 200.359375 146.992188 L 179.480469 193.191406 L 158.214844 239.042969 L 152.820312 250.457031 L 150.109375 256.171875 L 148.765625 259.023438 L 148.15625 260.34375 C 148.175781 260.234375 148.175781 260.128906 148.15625 260.019531 C 148.125 259.8125 148.007812 259.683594 147.808594 259.632812 C 147.699219 259.601562 147.589844 259.601562 147.480469 259.632812 C 147.480469 259.632812 147.480469 259.632812 147.605469 259.632812 L 148.335938 259.347656 L 154.265625 257.109375 L 166.121094 252.734375 C 197.691406 240.976562 229.425781 229.503906 261.507812 218.761719 Z M 261.507812 218.761719 " fill-opacity="1" fill-rule="nonzero"/></g><g clip-path="url(#id5)"><path fill="#737373" d="M 174.695312 154.007812 C 170.398438 156.777344 165.957031 159.195312 161.535156 161.636719 C 157.117188 164.078125 152.59375 166.335938 148.074219 168.535156 C 139 172.96875 129.820312 177.078125 120.535156 180.863281 L 113.445312 183.773438 L 114.992188 176.304688 C 117.03125 166.824219 119.066406 157.40625 121.652344 148.046875 C 122.898438 143.371094 124.300781 138.710938 125.726562 134.074219 C 127.152344 129.433594 128.703125 124.816406 130.535156 120.257812 C 130.535156 125.183594 130.003906 130.023438 129.578125 134.867188 C 129.148438 139.707031 128.539062 144.527344 127.867188 149.332031 C 126.507812 158.933594 124.871094 168.464844 122.957031 177.933594 L 117.417969 173.375 C 126.683594 169.511719 136.074219 165.890625 145.585938 162.59375 C 150.332031 160.925781 155.160156 159.441406 159.988281 157.933594 C 164.816406 156.429688 169.683594 155.066406 174.695312 154.007812 Z M 174.695312 154.007812 " fill-opacity="1" fill-rule="nonzero"/></g><g clip-path="url(#id6)"><path fill="#ffffff" d="M 113.484375 218.761719 C 144.324219 232.636719 175.425781 245.738281 206.613281 258.59375 L 218.304688 263.4375 L 224.167969 265.816406 L 224.902344 266.101562 C 225.097656 266.195312 225.304688 266.269531 225.515625 266.324219 C 225.777344 266.425781 226.050781 266.492188 226.328125 266.527344 C 227.507812 266.734375 228.65625 266.617188 229.769531 266.183594 C 230.175781 266.023438 230.558594 265.828125 230.921875 265.589844 C 231.285156 265.355469 231.625 265.089844 231.933594 264.785156 C 232.246094 264.484375 232.523438 264.152344 232.769531 263.796875 C 233.011719 263.4375 233.21875 263.0625 233.390625 262.664062 C 233.558594 262.265625 233.6875 261.851562 233.777344 261.429688 C 233.863281 261.003906 233.910156 260.578125 233.910156 260.144531 C 233.914062 259.710938 233.875 259.28125 233.789062 258.855469 C 233.707031 258.429688 233.582031 258.019531 233.417969 257.617188 L 232.726562 256.050781 L 231.441406 253.164062 L 228.914062 247.40625 L 223.78125 235.851562 L 202.90625 189.792969 L 181.640625 143.917969 C 174.429688 128.722656 167.277344 113.402344 159.964844 98.308594 C 159.964844 98.308594 159.964844 98.53125 159.964844 98.511719 C 159.964844 98.492188 159.964844 98.511719 159.863281 98.511719 C 159.761719 98.511719 159.863281 98.511719 159.863281 98.511719 L 161.105469 99.449219 L 163.632812 101.359375 L 173.695312 109.007812 L 193.941406 124.207031 C 207.488281 134.253906 221.03125 144.304688 234.800781 154.089844 C 222.050781 142.820312 209.21875 131.917969 196.324219 120.992188 L 176.914062 104.71875 L 167.175781 96.578125 L 164.734375 94.546875 L 163.511719 93.527344 C 162.65625 92.851562 161.691406 92.425781 160.617188 92.246094 C 160.21875 92.1875 159.8125 92.171875 159.410156 92.195312 C 159.003906 92.21875 158.605469 92.28125 158.214844 92.382812 C 157.824219 92.484375 157.445312 92.625 157.082031 92.800781 C 156.714844 92.976562 156.375 93.1875 156.050781 93.433594 C 155.730469 93.679688 155.433594 93.953125 155.167969 94.257812 C 154.898438 94.558594 154.664062 94.886719 154.460938 95.238281 C 154.257812 95.589844 154.09375 95.957031 153.964844 96.339844 C 153.832031 96.722656 153.742188 97.113281 153.691406 97.515625 C 153.566406 98.617188 153.714844 99.683594 154.140625 100.710938 C 160.863281 116.292969 167.789062 131.550781 174.632812 146.992188 L 195.511719 193.191406 L 216.777344 239.042969 L 222.171875 250.457031 L 224.882812 256.171875 L 226.226562 259.023438 L 226.839844 260.34375 C 226.816406 260.234375 226.816406 260.128906 226.839844 260.019531 C 226.867188 259.8125 226.984375 259.683594 227.183594 259.632812 C 227.292969 259.601562 227.402344 259.601562 227.511719 259.632812 C 227.511719 259.632812 227.511719 259.632812 227.386719 259.632812 L 226.65625 259.347656 L 220.726562 257.109375 L 208.871094 252.734375 C 177.300781 240.976562 145.566406 229.503906 113.484375 218.761719 Z M 113.484375 218.761719 " fill-opacity="1" fill-rule="nonzero"/></g><g clip-path="url(#id7)"><path fill="#ffffff" d="M 200.296875 154.007812 C 204.59375 156.777344 209.035156 159.195312 213.457031 161.636719 C 217.875 164.078125 222.398438 166.335938 226.917969 168.535156 C 235.992188 172.96875 245.171875 177.078125 254.457031 180.863281 L 261.546875 183.773438 L 260 176.304688 C 257.960938 166.824219 255.925781 157.40625 253.339844 148.046875 C 252.097656 143.371094 250.691406 138.710938 249.265625 134.074219 C 247.839844 129.433594 246.289062 124.816406 244.457031 120.257812 C 244.457031 125.183594 244.988281 130.023438 245.414062 134.867188 C 245.84375 139.707031 246.453125 144.527344 247.125 149.332031 C 248.484375 158.933594 250.121094 168.464844 252.035156 177.933594 L 257.574219 173.375 C 248.308594 169.511719 238.917969 165.890625 229.40625 162.59375 C 224.660156 160.925781 219.832031 159.441406 215.003906 157.933594 C 210.175781 156.429688 205.308594 155.066406 200.296875 154.007812 Z M 200.296875 154.007812 " fill-opacity="1" fill-rule="nonzero"/></g><path fill="#000000" d="M 49.339844 190.269531 L 325.941406 190.269531 C 327.644531 190.269531 329.277344 190.945312 330.480469 192.144531 C 331.683594 193.347656 332.359375 194.980469 332.359375 196.679688 L 332.359375 217.605469 C 332.359375 219.304688 331.683594 220.9375 330.480469 222.140625 C 329.277344 223.34375 327.644531 224.019531 325.941406 224.019531 L 49.339844 224.019531 C 45.792969 224.019531 42.921875 221.148438 42.921875 217.605469 L 42.921875 196.679688 C 42.921875 193.140625 45.792969 190.269531 49.339844 190.269531 " fill-opacity="1" fill-rule="nonzero"/><g fill="#38b6ff" fill-opacity="1"><g transform="translate(42.931642, 215.767836)"><g><path d="M 8.6875 -22.527344 C 9.125 -22.695312 9.730469 -22.765625 10.40625 -22.765625 L 22.496094 -22.765625 C 22.796875 -22.765625 23.4375 -22.898438 23.4375 -23.976562 L 23.4375 -24.75 L 27.714844 -24.75 L 27.714844 -25.457031 L 26.433594 -25.457031 L 26.433594 -26.570312 C 26.433594 -27.109375 26.265625 -27.378906 26.0625 -27.546875 L 21.621094 -27.546875 C 21.417969 -27.714844 21.179688 -27.75 21.046875 -27.75 L 8.789062 -27.75 C 7.949219 -27.75 7.171875 -27.679688 6.464844 -27.546875 L 12.425781 -27.546875 C 11.886719 -27.445312 11.414062 -27.308594 10.945312 -27.175781 C 9.96875 -26.804688 9.160156 -26.199219 8.519531 -25.457031 L 9.800781 -25.457031 C 9.765625 -25.390625 9.699219 -25.324219 9.664062 -25.289062 C 9.53125 -25.121094 9.394531 -24.917969 9.292969 -24.75 L 3.46875 -24.75 C 2.996094 -23.976562 2.625 -23.066406 2.390625 -21.988281 C 2.355469 -21.855469 2.324219 -21.6875 2.289062 -21.550781 L 6.601562 -21.550781 C 6.464844 -20.914062 6.398438 -20.203125 6.332031 -19.429688 L 2.390625 -19.429688 C 2.324219 -18.722656 2.289062 -17.984375 2.289062 -17.207031 L 2.289062 -16.03125 L 5.488281 -16.03125 L 5.488281 -15.320312 L 2.996094 -15.320312 L 2.996094 -10.539062 C 2.996094 -10.339844 2.996094 -10.136719 2.996094 -9.96875 L 4.816406 -9.96875 C 4.816406 -9.226562 4.847656 -8.519531 4.917969 -7.847656 L 5.894531 -7.847656 C 5.960938 -7.070312 6.0625 -6.363281 6.230469 -5.691406 C 6.433594 -4.816406 6.703125 -4.039062 7.070312 -3.367188 L 3.972656 -3.367188 C 4.140625 -2.996094 4.34375 -2.695312 4.546875 -2.390625 C 4.917969 -1.953125 5.320312 -1.582031 5.757812 -1.246094 L 8.519531 -1.246094 C 8.925781 -0.976562 9.363281 -0.742188 9.867188 -0.574219 L 6.5 -0.574219 C 6.53125 -0.539062 6.53125 -0.539062 6.566406 -0.539062 C 7.578125 -0.167969 8.855469 0.0351562 10.339844 0.0351562 L 22.597656 0.0351562 C 22.832031 0.0351562 23.269531 -0.0351562 23.4375 -0.574219 L 26.804688 -0.574219 C 26.839844 -0.707031 26.90625 -0.910156 26.90625 -1.144531 L 26.90625 -1.246094 L 24.144531 -1.246094 L 24.144531 -3.367188 L 27.277344 -3.367188 L 27.277344 -3.804688 C 27.277344 -4.847656 26.636719 -4.984375 26.332031 -4.984375 L 14.246094 -4.984375 C 13.539062 -4.984375 12.964844 -5.050781 12.527344 -5.21875 C 12.089844 -5.355469 11.753906 -5.589844 11.515625 -5.960938 C 11.246094 -6.296875 11.046875 -6.800781 10.945312 -7.441406 C 10.910156 -7.578125 10.910156 -7.710938 10.878906 -7.847656 L 9.902344 -7.847656 C 9.832031 -8.453125 9.800781 -9.160156 9.800781 -9.96875 L 7.980469 -9.96875 L 7.980469 -15.320312 L 16.332031 -15.320312 L 16.332031 -16.03125 L 7.308594 -16.03125 L 7.308594 -17.8125 C 7.308594 -18.421875 7.308594 -18.960938 7.375 -19.429688 L 11.28125 -19.429688 C 11.316406 -19.765625 11.347656 -20.035156 11.414062 -20.304688 C 11.484375 -20.8125 11.652344 -21.214844 11.820312 -21.550781 L 7.507812 -21.550781 C 7.578125 -21.621094 7.609375 -21.71875 7.679688 -21.789062 C 7.914062 -22.15625 8.25 -22.394531 8.6875 -22.527344 Z M 17.074219 -7.441406 L 24.414062 -7.441406 L 24.414062 -7.070312 L 17.074219 -7.070312 Z M 10.574219 -17.949219 L 17.949219 -17.949219 L 17.949219 -17.578125 L 10.574219 -17.578125 Z M 14.246094 -13.4375 L 25.1875 -13.4375 L 25.1875 -12.761719 L 14.246094 -12.761719 Z M 8.992188 -9.96875 L 13.066406 -9.96875 L 13.066406 -9.597656 L 8.992188 -9.597656 Z M 8.992188 -9.96875 "/></g></g></g><g fill="#38b6ff" fill-opacity="1"><g transform="translate(71.515754, 215.767836)"><g><path d="M 19.429688 -21.082031 L 9.867188 -21.082031 L 9.867188 -21.550781 L 19.429688 -21.550781 Z M 18.992188 -8.957031 L 11.988281 -8.957031 L 11.988281 -9.292969 L 18.992188 -9.292969 Z M 16.804688 -0.742188 L 11.144531 -0.742188 L 11.144531 -1.179688 L 16.804688 -1.179688 Z M 28.960938 -13.875 L 28.960938 -14.546875 L 25.425781 -14.546875 L 25.425781 -17.984375 L 28.1875 -17.984375 L 28.1875 -20.070312 L 25.695312 -20.070312 L 25.695312 -23.269531 L 24.988281 -23.269531 L 24.988281 -23.976562 L 28.726562 -23.976562 L 28.726562 -26.0625 L 25.929688 -26.0625 L 25.929688 -26.570312 C 25.929688 -27.613281 25.257812 -27.75 24.953125 -27.75 L 21.890625 -27.75 C 21.585938 -27.75 20.945312 -27.613281 20.945312 -26.570312 L 20.945312 -26.0625 L 23.742188 -26.0625 L 23.742188 -23.976562 L 14.480469 -23.976562 L 14.480469 -23.269531 L 20.710938 -23.269531 L 20.710938 -20.070312 L 23.203125 -20.070312 L 23.203125 -17.984375 L 20.441406 -17.984375 L 20.441406 -16.5 L 7.679688 -16.5 L 7.679688 -17.984375 L 10.472656 -17.984375 L 10.472656 -20.070312 L 7.949219 -20.070312 L 7.949219 -23.269531 L 7.273438 -23.269531 L 7.273438 -23.976562 L 10.976562 -23.976562 L 10.976562 -26.0625 L 8.183594 -26.0625 L 8.183594 -26.570312 C 8.183594 -27.613281 7.542969 -27.75 7.238281 -27.75 L 4.175781 -27.75 C 3.871094 -27.75 3.199219 -27.613281 3.199219 -26.570312 L 3.199219 -26.0625 L 5.996094 -26.0625 L 5.996094 -23.976562 L 1.011719 -23.976562 L 1.011719 -23.269531 L 2.964844 -23.269531 L 2.964844 -20.070312 L 5.457031 -20.070312 L 5.457031 -17.984375 L 2.695312 -17.984375 L 2.695312 -14.546875 L 11.550781 -14.546875 L 11.550781 -13.875 L 2.390625 -13.875 L 2.390625 -8.484375 L 5.21875 -8.484375 L 5.21875 -6.398438 L 4.140625 -6.398438 L 4.140625 -4.949219 L 2.1875 -4.949219 L 2.1875 -2.863281 L 4.679688 -2.863281 L 4.679688 -1.144531 C 4.679688 -0.101562 5.355469 0.0351562 5.65625 0.0351562 L 8.753906 0.0351562 C 9.023438 0.0351562 9.664062 -0.101562 9.664062 -1.144531 L 9.664062 -2.863281 L 7.171875 -2.863281 L 7.171875 -4.949219 L 15.761719 -4.949219 L 15.761719 -6.398438 L 10.203125 -6.398438 L 10.203125 -8.484375 L 7.710938 -8.484375 L 7.710938 -11.515625 L 21.28125 -11.515625 L 21.28125 -8.484375 L 22.964844 -8.484375 L 22.964844 -6.398438 L 20.710938 -6.398438 L 20.710938 -4.949219 L 19.9375 -4.949219 L 19.9375 -2.863281 L 22.425781 -2.863281 L 22.425781 -1.144531 C 22.425781 -0.101562 23.066406 0.0351562 23.371094 0.0351562 L 26.433594 0.0351562 C 26.738281 0.0351562 27.410156 -0.101562 27.410156 -1.144531 L 27.410156 -2.863281 L 24.917969 -2.863281 L 24.917969 -4.949219 L 27.445312 -4.949219 L 27.445312 -6.398438 L 27.949219 -6.398438 L 27.949219 -8.484375 L 26.570312 -8.484375 L 26.570312 -13.875 Z M 28.960938 -13.875 "/></g></g></g><g fill="#38b6ff" fill-opacity="1"><g transform="translate(101.311922, 215.767836)"><g><path d="M 22.15625 -13.605469 C 22.664062 -14.34375 23.035156 -15.222656 23.269531 -16.265625 L 27.511719 -16.265625 C 27.578125 -16.5 27.648438 -16.804688 27.679688 -17.074219 L 23.066406 -17.074219 C 23.203125 -17.8125 23.269531 -18.621094 23.269531 -19.496094 L 26.839844 -19.496094 C 26.839844 -19.53125 26.839844 -19.566406 26.839844 -19.597656 C 26.839844 -20.441406 26.773438 -21.214844 26.671875 -21.890625 L 25.355469 -21.890625 C 25.355469 -21.921875 25.355469 -21.921875 25.355469 -21.921875 L 23.875 -21.921875 C 23.742188 -22.832031 23.539062 -23.605469 23.269531 -24.3125 L 25.894531 -24.3125 C 25.695312 -24.785156 25.457031 -25.222656 25.1875 -25.59375 C 24.886719 -26.0625 24.480469 -26.433594 24.011719 -26.738281 L 21.148438 -26.738281 C 20.171875 -27.410156 18.925781 -27.75 17.34375 -27.75 L 1.820312 -27.75 C 1.550781 -27.75 0.941406 -27.648438 0.875 -26.738281 L 3.738281 -26.738281 C 3.738281 -26.671875 3.738281 -26.636719 3.738281 -26.570312 L 3.738281 -24.3125 L 1.078125 -24.3125 L 1.078125 -23.910156 C 1.078125 -22.867188 1.75 -22.765625 2.054688 -22.765625 L 16.703125 -22.765625 C 17.578125 -22.765625 18.183594 -22.527344 18.519531 -22.023438 C 18.519531 -21.988281 18.554688 -21.957031 18.554688 -21.921875 L 20.035156 -21.921875 C 20.035156 -21.921875 20.035156 -21.921875 20.035156 -21.890625 L 21.351562 -21.890625 C 21.6875 -21.382812 21.855469 -20.609375 21.855469 -19.597656 C 21.855469 -19.566406 21.820312 -19.53125 21.820312 -19.496094 L 18.285156 -19.496094 C 18.285156 -18.453125 18.082031 -17.679688 17.746094 -17.175781 C 17.714844 -17.140625 17.679688 -17.105469 17.644531 -17.074219 L 22.257812 -17.074219 C 21.890625 -16.667969 21.351562 -16.433594 20.542969 -16.433594 L 5.894531 -16.433594 C 5.757812 -16.433594 5.523438 -16.433594 5.285156 -16.265625 L 1.042969 -16.265625 C 0.84375 -16.097656 0.671875 -15.792969 0.671875 -15.289062 L 0.671875 -12.527344 L 3.871094 -12.527344 L 3.871094 -10.101562 L 1.550781 -10.101562 L 1.550781 -6.164062 L 4.039062 -6.164062 L 4.039062 -5.320312 L 1.550781 -5.320312 L 1.550781 -1.144531 C 1.550781 -1.011719 1.550781 -0.875 1.582031 -0.773438 L 3.132812 -0.773438 C 3.265625 -0.0664062 3.804688 0.0351562 4.074219 0.0351562 L 7.140625 0.0351562 C 7.410156 0.0351562 7.914062 -0.0664062 8.046875 -0.773438 L 6.5 -0.773438 C 6.53125 -0.875 6.53125 -1.011719 6.53125 -1.144531 L 6.53125 -5.320312 L 12.089844 -5.320312 L 12.089844 -6.164062 L 6.53125 -6.164062 L 6.53125 -10.101562 L 8.855469 -10.101562 L 8.855469 -11.449219 L 15.960938 -11.449219 L 16.703125 -10.101562 L 14.378906 -10.101562 L 16.636719 -6.164062 L 19.128906 -6.164062 L 19.566406 -5.320312 L 17.105469 -5.320312 L 19.699219 -0.773438 L 21.25 -0.773438 L 21.316406 -0.640625 C 21.417969 -0.4375 21.550781 -0.269531 21.652344 -0.167969 C 21.820312 -0.0351562 22.058594 0.0351562 22.394531 0.0351562 L 26.0625 0.0351562 C 26.46875 0.0351562 26.773438 -0.234375 26.839844 -0.640625 C 26.839844 -0.671875 26.839844 -0.707031 26.839844 -0.773438 L 25.289062 -0.773438 C 25.289062 -1.042969 25.257812 -1.28125 25.15625 -1.449219 L 22.867188 -5.320312 L 25.355469 -5.320312 L 24.886719 -6.164062 L 22.394531 -6.164062 L 20.070312 -10.101562 L 22.394531 -10.101562 L 21.550781 -11.550781 C 22.628906 -11.683594 23.539062 -12.023438 24.28125 -12.527344 L 21.082031 -12.527344 C 21.484375 -12.832031 21.855469 -13.199219 22.15625 -13.605469 Z M 10.304688 -17.613281 L 3.234375 -17.613281 L 3.234375 -18.488281 L 10.304688 -18.488281 Z M 13.4375 -21.046875 L 7.207031 -21.046875 L 7.207031 -21.484375 L 13.4375 -21.484375 Z M 15.222656 -2.929688 L 8.992188 -2.929688 L 8.992188 -3.402344 L 15.222656 -3.402344 Z M 15.222656 -2.929688 "/></g></g></g><g fill="#38b6ff" fill-opacity="1"><g transform="translate(132.15179, 215.767836)"><g><path d="M 28.589844 -15.421875 L 28.589844 -17.207031 C 28.589844 -18.890625 28.457031 -20.375 28.21875 -21.621094 L 25.761719 -21.621094 C 25.726562 -21.753906 25.726562 -21.890625 25.695312 -21.988281 C 25.527344 -22.765625 25.289062 -23.4375 24.988281 -24.042969 L 26.535156 -24.042969 C 26.332031 -24.515625 26.097656 -24.917969 25.796875 -25.289062 C 25.660156 -25.457031 25.527344 -25.59375 25.390625 -25.726562 L 27.242188 -25.726562 C 26.636719 -26.367188 25.894531 -26.839844 25.019531 -27.175781 C 23.976562 -27.546875 22.695312 -27.75 21.214844 -27.75 L 13.03125 -27.75 C 11.550781 -27.75 10.269531 -27.546875 9.226562 -27.175781 C 8.351562 -26.839844 7.644531 -26.367188 7.039062 -25.726562 L 5.1875 -25.726562 C 5.050781 -25.59375 4.882812 -25.457031 4.78125 -25.289062 C 4.480469 -24.917969 4.242188 -24.515625 4.039062 -24.042969 L 2.457031 -24.042969 C 2.15625 -23.4375 1.917969 -22.765625 1.75 -21.988281 C 1.71875 -21.890625 1.71875 -21.753906 1.683594 -21.621094 L 4.140625 -21.621094 C 3.871094 -20.375 3.738281 -18.890625 3.738281 -17.207031 L 3.738281 -15.421875 L 1.3125 -15.421875 L 1.3125 -14.613281 L 2.894531 -14.613281 L 2.894531 -10.640625 L 1.683594 -10.640625 L 1.683594 -10.539062 C 1.683594 -9.699219 1.71875 -8.925781 1.785156 -8.214844 L 2.828125 -8.214844 C 2.894531 -7.273438 3.03125 -6.433594 3.199219 -5.726562 C 3.300781 -5.285156 3.402344 -4.882812 3.535156 -4.480469 L 1.347656 -4.480469 C 1.449219 -4.210938 1.550781 -3.941406 1.683594 -3.671875 L 4.78125 -3.671875 C 4.984375 -3.199219 5.253906 -2.796875 5.523438 -2.425781 C 5.894531 -1.953125 6.296875 -1.582031 6.769531 -1.246094 L 4.949219 -1.246094 C 5.355469 -0.976562 5.824219 -0.707031 6.332031 -0.539062 C 7.339844 -0.167969 8.621094 0.0351562 10.101562 0.0351562 L 18.320312 0.0351562 C 19.800781 0.0351562 21.082031 -0.167969 22.125 -0.539062 C 22.628906 -0.707031 23.066406 -0.976562 23.503906 -1.246094 L 25.324219 -1.246094 C 25.796875 -1.582031 26.199219 -1.953125 26.570312 -2.390625 C 26.871094 -2.796875 27.109375 -3.199219 27.34375 -3.671875 L 25.121094 -3.671875 C 25.257812 -3.941406 25.355469 -4.210938 25.457031 -4.480469 L 26.773438 -4.480469 C 26.90625 -4.882812 27.042969 -5.285156 27.109375 -5.726562 C 27.277344 -6.464844 27.410156 -7.273438 27.480469 -8.214844 L 28.488281 -8.214844 C 28.554688 -8.925781 28.589844 -9.699219 28.589844 -10.539062 L 28.589844 -10.640625 L 28.019531 -10.640625 L 28.019531 -14.613281 L 26.773438 -14.613281 L 26.773438 -15.421875 Z M 21.753906 -14.613281 L 21.753906 -10.640625 L 23.574219 -10.640625 L 23.574219 -9.933594 C 23.574219 -9.292969 23.539062 -8.722656 23.503906 -8.214844 L 22.496094 -8.214844 C 22.460938 -7.949219 22.425781 -7.679688 22.394531 -7.441406 C 22.257812 -6.835938 22.089844 -6.296875 21.820312 -5.960938 C 21.585938 -5.589844 21.25 -5.355469 20.8125 -5.21875 C 20.375 -5.050781 19.800781 -4.984375 19.09375 -4.984375 L 11.214844 -4.984375 C 10.507812 -4.984375 9.933594 -5.050781 9.460938 -5.21875 C 9.058594 -5.355469 8.722656 -5.589844 8.484375 -5.960938 C 8.214844 -6.296875 8.015625 -6.835938 7.914062 -7.441406 C 7.878906 -7.679688 7.847656 -7.949219 7.8125 -8.214844 L 6.769531 -8.214844 C 6.703125 -8.722656 6.667969 -9.292969 6.667969 -9.933594 L 6.667969 -10.640625 L 7.878906 -10.640625 L 7.878906 -14.613281 L 15.457031 -14.613281 L 15.457031 -15.421875 L 8.753906 -15.421875 L 8.753906 -17.78125 C 8.753906 -18.757812 8.789062 -19.597656 8.925781 -20.273438 C 9.023438 -20.84375 9.191406 -21.28125 9.394531 -21.621094 L 6.9375 -21.621094 C 6.972656 -21.6875 7.003906 -21.71875 7.039062 -21.789062 C 7.273438 -22.125 7.609375 -22.359375 8.046875 -22.527344 C 8.484375 -22.664062 9.058594 -22.765625 9.765625 -22.765625 L 17.644531 -22.765625 C 18.351562 -22.765625 18.925781 -22.664062 19.398438 -22.527344 C 19.800781 -22.359375 20.136719 -22.125 20.375 -21.789062 C 20.40625 -21.71875 20.441406 -21.6875 20.472656 -21.621094 L 22.933594 -21.621094 C 23.132812 -21.28125 23.304688 -20.8125 23.402344 -20.273438 C 23.539062 -19.597656 23.574219 -18.757812 23.574219 -17.78125 L 23.574219 -15.421875 L 20.914062 -15.421875 L 20.914062 -14.613281 Z M 19.835938 -8.484375 L 14.917969 -8.484375 L 14.917969 -8.925781 L 19.835938 -8.925781 Z M 13.402344 -6.835938 L 10.203125 -6.835938 L 10.203125 -7.070312 L 13.402344 -7.070312 Z M 19.835938 -19.496094 L 13.4375 -19.496094 L 13.4375 -20.136719 L 19.835938 -20.136719 Z M 14.074219 -11.246094 L 9.363281 -11.246094 L 9.363281 -11.585938 L 14.074219 -11.585938 Z M 14.074219 -11.246094 "/></g></g></g><g fill="#38b6ff" fill-opacity="1"><g transform="translate(164.035371, 215.767836)"><g><path d="M 24.515625 -9.460938 L 27.410156 -9.460938 L 27.410156 -9.597656 C 27.410156 -10.4375 27.34375 -11.179688 27.210938 -11.886719 L 23.035156 -11.886719 C 22.832031 -13.03125 22.460938 -13.976562 21.921875 -14.714844 C 21.652344 -15.050781 21.382812 -15.355469 21.046875 -15.589844 L 26.503906 -15.589844 C 25.996094 -15.996094 25.425781 -16.265625 24.785156 -16.398438 L 19.902344 -16.398438 C 19.464844 -16.5 18.992188 -16.566406 18.488281 -16.566406 L 8.417969 -16.566406 C 7.914062 -16.566406 7.238281 -16.769531 7.238281 -18.421875 L 7.238281 -18.824219 L 11.652344 -18.824219 L 11.652344 -20.914062 C 11.652344 -21.011719 11.652344 -21.148438 11.652344 -21.25 L 8.925781 -21.25 C 8.925781 -21.25 8.925781 -21.25 8.925781 -21.28125 L 7.507812 -21.28125 C 7.542969 -21.71875 7.644531 -22.058594 7.8125 -22.328125 C 7.914062 -22.527344 8.117188 -22.765625 8.6875 -22.765625 L 22.394531 -22.765625 C 22.628906 -22.765625 23.203125 -22.867188 23.304688 -23.640625 L 26.503906 -23.640625 C 26.503906 -23.742188 26.503906 -23.808594 26.503906 -23.910156 L 26.503906 -26.0625 L 22.425781 -26.0625 L 22.425781 -26.601562 C 22.425781 -27.648438 21.789062 -27.75 21.484375 -27.75 L 6.972656 -27.75 C 5.253906 -27.75 3.941406 -27.175781 3.0625 -26.0625 L 7.140625 -26.0625 C 7.070312 -25.996094 7.039062 -25.964844 6.972656 -25.894531 C 6.53125 -25.257812 6.195312 -24.480469 5.996094 -23.640625 L 2.796875 -23.640625 C 2.625 -22.933594 2.527344 -22.125 2.527344 -21.28125 L 3.90625 -21.28125 C 3.90625 -21.25 3.90625 -21.25 3.90625 -21.25 L 4.511719 -21.25 C 4.511719 -21.214844 4.511719 -21.179688 4.511719 -21.113281 L 4.511719 -18.824219 L 2.257812 -18.824219 L 2.257812 -18.554688 C 2.257812 -17.78125 2.289062 -17.074219 2.390625 -16.398438 L 5.691406 -16.398438 C 5.757812 -16.128906 5.792969 -15.859375 5.859375 -15.589844 L 1.953125 -15.589844 C 2.1875 -14.613281 2.527344 -13.773438 2.964844 -13.167969 C 3.46875 -12.492188 4.074219 -12.121094 4.75 -11.886719 L 8.925781 -11.886719 C 9.632812 -11.652344 10.40625 -11.585938 11.144531 -11.585938 L 21.25 -11.585938 C 21.753906 -11.585938 22.425781 -11.382812 22.425781 -9.730469 L 22.425781 -9.460938 L 19.53125 -9.460938 L 19.53125 -6.835938 C 19.53125 -6.261719 19.429688 -5.824219 19.261719 -5.488281 L 21.71875 -5.488281 C 21.71875 -5.457031 21.71875 -5.457031 21.6875 -5.421875 C 21.585938 -5.21875 21.382812 -4.984375 20.8125 -4.984375 L 6.433594 -4.984375 C 6.230469 -4.984375 5.925781 -4.949219 5.691406 -4.679688 L 1.210938 -4.679688 C 1.078125 -4.511719 0.976562 -4.242188 0.976562 -3.839844 L 0.976562 -1.449219 L 5.050781 -1.449219 L 5.050781 -1.144531 C 5.050781 -0.101562 5.726562 0 5.996094 0 L 21.214844 0 C 22.832031 0 24.078125 -0.472656 24.953125 -1.449219 L 20.878906 -1.449219 C 21.011719 -1.582031 21.113281 -1.71875 21.214844 -1.886719 C 21.789062 -2.660156 22.15625 -3.601562 22.359375 -4.679688 L 26.839844 -4.679688 C 26.871094 -4.949219 26.90625 -5.21875 26.941406 -5.488281 L 24.449219 -5.488281 C 24.480469 -5.859375 24.515625 -6.230469 24.515625 -6.632812 Z M 14.175781 -6.09375 L 7.105469 -6.09375 L 7.105469 -6.972656 L 14.175781 -6.972656 Z M 21.519531 -17.613281 L 16.667969 -17.613281 L 16.667969 -18.488281 L 21.519531 -18.488281 Z M 16.398438 -9.800781 L 10.136719 -9.800781 L 10.136719 -10.269531 L 16.398438 -10.269531 Z M 19.496094 -21.046875 L 13.269531 -21.046875 L 13.269531 -21.484375 L 19.496094 -21.484375 Z M 19.496094 -21.046875 "/></g></g></g><g fill="#38b6ff" fill-opacity="1"><g transform="translate(192.68682, 215.767836)"><g><path d="M 24.515625 -9.460938 L 27.410156 -9.460938 L 27.410156 -9.597656 C 27.410156 -10.4375 27.34375 -11.179688 27.210938 -11.886719 L 23.035156 -11.886719 C 22.832031 -13.03125 22.460938 -13.976562 21.921875 -14.714844 C 21.652344 -15.050781 21.382812 -15.355469 21.046875 -15.589844 L 26.503906 -15.589844 C 25.996094 -15.996094 25.425781 -16.265625 24.785156 -16.398438 L 19.902344 -16.398438 C 19.464844 -16.5 18.992188 -16.566406 18.488281 -16.566406 L 8.417969 -16.566406 C 7.914062 -16.566406 7.238281 -16.769531 7.238281 -18.421875 L 7.238281 -18.824219 L 11.652344 -18.824219 L 11.652344 -20.914062 C 11.652344 -21.011719 11.652344 -21.148438 11.652344 -21.25 L 8.925781 -21.25 C 8.925781 -21.25 8.925781 -21.25 8.925781 -21.28125 L 7.507812 -21.28125 C 7.542969 -21.71875 7.644531 -22.058594 7.8125 -22.328125 C 7.914062 -22.527344 8.117188 -22.765625 8.6875 -22.765625 L 22.394531 -22.765625 C 22.628906 -22.765625 23.203125 -22.867188 23.304688 -23.640625 L 26.503906 -23.640625 C 26.503906 -23.742188 26.503906 -23.808594 26.503906 -23.910156 L 26.503906 -26.0625 L 22.425781 -26.0625 L 22.425781 -26.601562 C 22.425781 -27.648438 21.789062 -27.75 21.484375 -27.75 L 6.972656 -27.75 C 5.253906 -27.75 3.941406 -27.175781 3.0625 -26.0625 L 7.140625 -26.0625 C 7.070312 -25.996094 7.039062 -25.964844 6.972656 -25.894531 C 6.53125 -25.257812 6.195312 -24.480469 5.996094 -23.640625 L 2.796875 -23.640625 C 2.625 -22.933594 2.527344 -22.125 2.527344 -21.28125 L 3.90625 -21.28125 C 3.90625 -21.25 3.90625 -21.25 3.90625 -21.25 L 4.511719 -21.25 C 4.511719 -21.214844 4.511719 -21.179688 4.511719 -21.113281 L 4.511719 -18.824219 L 2.257812 -18.824219 L 2.257812 -18.554688 C 2.257812 -17.78125 2.289062 -17.074219 2.390625 -16.398438 L 5.691406 -16.398438 C 5.757812 -16.128906 5.792969 -15.859375 5.859375 -15.589844 L 1.953125 -15.589844 C 2.1875 -14.613281 2.527344 -13.773438 2.964844 -13.167969 C 3.46875 -12.492188 4.074219 -12.121094 4.75 -11.886719 L 8.925781 -11.886719 C 9.632812 -11.652344 10.40625 -11.585938 11.144531 -11.585938 L 21.25 -11.585938 C 21.753906 -11.585938 22.425781 -11.382812 22.425781 -9.730469 L 22.425781 -9.460938 L 19.53125 -9.460938 L 19.53125 -6.835938 C 19.53125 -6.261719 19.429688 -5.824219 19.261719 -5.488281 L 21.71875 -5.488281 C 21.71875 -5.457031 21.71875 -5.457031 21.6875 -5.421875 C 21.585938 -5.21875 21.382812 -4.984375 20.8125 -4.984375 L 6.433594 -4.984375 C 6.230469 -4.984375 5.925781 -4.949219 5.691406 -4.679688 L 1.210938 -4.679688 C 1.078125 -4.511719 0.976562 -4.242188 0.976562 -3.839844 L 0.976562 -1.449219 L 5.050781 -1.449219 L 5.050781 -1.144531 C 5.050781 -0.101562 5.726562 0 5.996094 0 L 21.214844 0 C 22.832031 0 24.078125 -0.472656 24.953125 -1.449219 L 20.878906 -1.449219 C 21.011719 -1.582031 21.113281 -1.71875 21.214844 -1.886719 C 21.789062 -2.660156 22.15625 -3.601562 22.359375 -4.679688 L 26.839844 -4.679688 C 26.871094 -4.949219 26.90625 -5.21875 26.941406 -5.488281 L 24.449219 -5.488281 C 24.480469 -5.859375 24.515625 -6.230469 24.515625 -6.632812 Z M 14.175781 -6.09375 L 7.105469 -6.09375 L 7.105469 -6.972656 L 14.175781 -6.972656 Z M 21.519531 -17.613281 L 16.667969 -17.613281 L 16.667969 -18.488281 L 21.519531 -18.488281 Z M 16.398438 -9.800781 L 10.136719 -9.800781 L 10.136719 -10.269531 L 16.398438 -10.269531 Z M 19.496094 -21.046875 L 13.269531 -21.046875 L 13.269531 -21.484375 L 19.496094 -21.484375 Z M 19.496094 -21.046875 "/></g></g></g><g fill="#38b6ff" fill-opacity="1"><g transform="translate(221.338269, 215.767836)"><g><path d="M 23.976562 -1.785156 L 23.976562 -3.804688 C 23.976562 -4.847656 23.304688 -4.984375 23.035156 -4.984375 L 12.089844 -4.984375 C 11.382812 -4.984375 10.777344 -5.050781 10.339844 -5.21875 L 8.621094 -5.21875 C 8.214844 -5.355469 7.878906 -5.625 7.644531 -5.960938 C 7.375 -6.332031 7.207031 -6.835938 7.070312 -7.441406 C 7.070312 -7.441406 7.070312 -7.441406 7.070312 -7.476562 L 8.554688 -7.476562 C 8.453125 -8.117188 8.386719 -8.957031 8.386719 -9.96875 L 8.386719 -11.113281 L 11.347656 -11.113281 L 11.347656 -11.855469 L 8.484375 -11.855469 L 8.484375 -17.578125 L 7.070312 -17.578125 L 7.070312 -19.835938 L 13.167969 -19.835938 L 13.167969 -21.351562 L 7.542969 -21.351562 L 7.542969 -23.605469 L 8.484375 -23.605469 L 8.484375 -25.828125 L 6.769531 -25.828125 L 6.769531 -26.570312 C 6.769531 -27.648438 6.09375 -27.75 5.824219 -27.75 L 2.726562 -27.75 C 2.425781 -27.75 1.75 -27.648438 1.75 -26.570312 L 1.75 -25.828125 L 3.503906 -25.828125 L 3.503906 -23.605469 L 0.539062 -23.605469 L 0.539062 -21.351562 L 3.132812 -21.351562 L 3.132812 -19.835938 L 2.054688 -19.835938 L 2.054688 -17.578125 L 3.503906 -17.578125 L 3.503906 -11.855469 L 1.820312 -11.855469 L 1.820312 -11.113281 L 3.402344 -11.113281 L 3.402344 -10.539062 C 3.402344 -9.394531 3.46875 -8.386719 3.570312 -7.476562 L 2.054688 -7.476562 C 2.15625 -6.835938 2.222656 -6.230469 2.355469 -5.726562 C 2.390625 -5.523438 2.457031 -5.386719 2.492188 -5.21875 L 4.175781 -5.21875 C 4.480469 -4.109375 4.917969 -3.132812 5.523438 -2.425781 C 5.691406 -2.1875 5.859375 -1.988281 6.0625 -1.785156 L 2.828125 -1.785156 C 3.132812 -1.515625 3.46875 -1.28125 3.839844 -1.042969 L 7.878906 -1.042969 C 8.214844 -0.84375 8.554688 -0.671875 8.925781 -0.539062 C 9.96875 -0.167969 11.246094 0.0351562 12.695312 0.0351562 L 23.84375 0.0351562 C 24.109375 0.0351562 24.71875 -0.101562 24.75 -1.042969 L 25.761719 -1.042969 C 25.761719 -1.078125 25.761719 -1.109375 25.761719 -1.144531 L 25.761719 -1.785156 Z M 17.644531 -13.03125 L 12.730469 -13.03125 L 12.730469 -13.46875 L 17.644531 -13.46875 Z M 16.0625 -7.273438 L 8.992188 -7.273438 L 8.992188 -7.644531 L 16.0625 -7.644531 Z M 17.140625 -23.640625 L 10.238281 -23.640625 L 10.238281 -24.3125 L 17.140625 -24.3125 Z M 17.140625 -23.640625 "/></g></g></g><g fill="#38b6ff" fill-opacity="1"><g transform="translate(248.777675, 215.767836)"><g><path d="M 32.394531 -1.246094 L 29.800781 -1.246094 C 29.800781 -1.28125 29.800781 -1.28125 29.800781 -1.28125 L 28.960938 -3.367188 L 30.878906 -3.367188 L 29.0625 -7.847656 L 26.402344 -7.847656 L 25.558594 -9.96875 L 27.34375 -9.96875 L 25.1875 -15.320312 L 26.738281 -15.320312 L 26.46875 -16.03125 L 23.976562 -16.03125 L 22.597656 -19.429688 L 24.246094 -19.429688 L 23.371094 -21.550781 L 20.878906 -21.550781 L 19.632812 -24.617188 C 19.632812 -24.648438 19.597656 -24.683594 19.597656 -24.75 L 18.152344 -24.75 C 18.082031 -24.886719 18.015625 -25.019531 17.984375 -25.121094 C 17.949219 -25.222656 17.882812 -25.324219 17.847656 -25.457031 L 22.058594 -25.457031 C 21.71875 -26.332031 21.082031 -27.074219 20.273438 -27.546875 L 19.261719 -27.546875 C 18.65625 -27.917969 17.949219 -28.117188 17.175781 -28.117188 C 16.433594 -28.117188 15.691406 -27.917969 15.085938 -27.546875 L 16.0625 -27.546875 C 15.996094 -27.511719 15.929688 -27.445312 15.828125 -27.410156 C 15.660156 -27.308594 15.492188 -27.175781 15.355469 -27.074219 C 14.953125 -26.738281 14.613281 -26.199219 14.246094 -25.457031 L 10.035156 -25.457031 C 9.933594 -25.222656 9.832031 -24.988281 9.730469 -24.75 L 11.144531 -24.75 C 11.144531 -24.683594 11.113281 -24.648438 11.113281 -24.617188 L 9.867188 -21.550781 L 12.359375 -21.550781 L 11.515625 -19.429688 L 9.867188 -19.429688 L 8.484375 -16.03125 L 10.976562 -16.03125 L 10.707031 -15.320312 L 9.125 -15.320312 L 6.972656 -9.96875 L 5.1875 -9.96875 L 4.34375 -7.847656 L 7.003906 -7.847656 L 5.1875 -3.367188 L 3.234375 -3.367188 L 2.425781 -1.28125 C 2.425781 -1.28125 2.390625 -1.28125 2.390625 -1.246094 L 5.015625 -1.246094 C 4.917969 -0.976562 4.882812 -0.773438 4.917969 -0.574219 L 2.222656 -0.574219 C 2.257812 -0.539062 2.257812 -0.503906 2.257812 -0.472656 C 2.289062 -0.269531 2.457031 0.0351562 2.996094 0.0351562 L 6.703125 0.0351562 C 7.105469 0.0351562 7.410156 -0.203125 7.578125 -0.574219 L 10.269531 -0.574219 C 10.304688 -0.605469 10.339844 -0.640625 10.339844 -0.671875 L 10.574219 -1.246094 L 7.949219 -1.246094 L 8.789062 -3.367188 L 10.742188 -3.367188 L 11.585938 -5.488281 L 18.960938 -5.488281 C 19.328125 -5.488281 19.667969 -5.65625 19.835938 -5.960938 C 20.035156 -6.230469 20.070312 -6.601562 19.96875 -6.9375 L 19.597656 -7.847656 L 16.9375 -7.847656 L 16.097656 -9.933594 C 16.097656 -9.933594 16.097656 -9.96875 16.097656 -9.96875 L 17.882812 -9.96875 C 17.714844 -10.339844 17.34375 -10.609375 16.90625 -10.609375 L 12.761719 -10.609375 L 13.367188 -12.121094 L 16.738281 -12.121094 L 16.738281 -12.492188 L 13.503906 -12.492188 L 14.613281 -15.320312 L 16.164062 -15.320312 L 16.46875 -16.03125 L 13.976562 -16.03125 L 15.320312 -19.429688 L 16.972656 -19.429688 L 17.78125 -21.519531 C 17.8125 -21.550781 17.8125 -21.550781 17.8125 -21.550781 L 18.015625 -21.550781 L 18.859375 -19.429688 L 17.207031 -19.429688 L 18.589844 -16.03125 L 21.082031 -16.03125 L 21.351562 -15.320312 L 19.800781 -15.320312 L 21.921875 -9.96875 L 20.136719 -9.96875 L 20.980469 -7.847656 L 23.640625 -7.847656 L 25.457031 -3.367188 L 23.503906 -3.367188 L 24.347656 -1.246094 L 26.972656 -1.246094 L 27.175781 -0.707031 C 27.210938 -0.640625 27.242188 -0.605469 27.242188 -0.574219 L 24.550781 -0.574219 C 24.75 -0.203125 25.054688 0.0351562 25.457031 0.0351562 L 29.0625 0.0351562 C 29.601562 0.0351562 29.734375 -0.304688 29.800781 -0.472656 C 29.800781 -0.472656 29.800781 -0.539062 29.800781 -0.574219 L 32.496094 -0.574219 C 32.53125 -0.773438 32.496094 -0.976562 32.394531 -1.246094 Z M 15.390625 -4.242188 L 21.046875 -4.242188 L 21.046875 -3.90625 L 15.390625 -3.90625 Z M 9.53125 -2.390625 L 13.234375 -2.390625 L 13.234375 -2.019531 L 9.53125 -2.019531 Z M 9.53125 -2.390625 "/></g></g></g><g fill="#38b6ff" fill-opacity="1"><g transform="translate(283.523033, 215.767836)"><g><path d="M 42.597656 -22.226562 L 42.597656 -22.257812 L 43.84375 -22.257812 L 44.652344 -24.785156 L 42.160156 -24.785156 L 42.835938 -26.839844 C 42.902344 -27.007812 42.9375 -27.175781 42.9375 -27.34375 L 44.179688 -27.34375 C 44.179688 -27.445312 44.179688 -27.546875 44.148438 -27.648438 C 44.113281 -27.847656 43.945312 -28.152344 43.40625 -28.152344 L 39.703125 -28.152344 C 39.265625 -28.152344 38.929688 -27.882812 38.726562 -27.410156 L 38.726562 -27.34375 L 37.480469 -27.34375 L 36.671875 -24.785156 L 39.164062 -24.785156 L 38.355469 -22.257812 L 37.109375 -22.257812 L 37.109375 -22.226562 L 35.863281 -22.226562 L 35.054688 -19.699219 L 37.546875 -19.699219 L 36.738281 -17.105469 L 34.246094 -17.105469 L 33.976562 -16.265625 L 36.46875 -16.265625 L 35.222656 -12.359375 L 33.371094 -12.359375 L 32.5625 -9.765625 L 33.808594 -9.765625 L 32.96875 -7.207031 C 32.96875 -7.140625 32.933594 -7.140625 32.933594 -7.140625 L 32.800781 -7.105469 C 32.800781 -7.105469 32.800781 -7.140625 32.765625 -7.171875 L 32.023438 -9.765625 L 30.777344 -9.765625 L 30.039062 -12.359375 L 31.890625 -12.359375 L 30.746094 -16.265625 L 28.253906 -16.265625 L 28.019531 -17.105469 L 30.507812 -17.105469 L 29.769531 -19.699219 L 27.277344 -19.699219 L 26.535156 -22.226562 L 27.78125 -22.226562 L 27.75 -22.257812 L 28.996094 -22.257812 L 28.285156 -24.785156 L 25.796875 -24.785156 L 25.054688 -27.34375 L 26.300781 -27.34375 L 26.265625 -27.410156 C 26.097656 -27.882812 25.761719 -28.152344 25.324219 -28.152344 L 21.519531 -28.152344 C 21.082031 -28.152344 20.742188 -27.882812 20.542969 -27.410156 L 20.542969 -27.34375 L 19.296875 -27.34375 L 18.488281 -24.785156 L 20.945312 -24.785156 L 20.171875 -22.257812 L 18.925781 -22.257812 L 18.925781 -22.226562 L 17.679688 -22.226562 L 16.871094 -19.699219 L 19.363281 -19.699219 L 18.554688 -17.105469 L 14.074219 -17.105469 L 13.808594 -16.265625 L 18.285156 -16.265625 L 17.039062 -12.359375 L 15.1875 -12.359375 L 14.378906 -9.765625 L 15.589844 -9.765625 L 14.785156 -7.207031 C 14.785156 -7.140625 14.75 -7.140625 14.75 -7.140625 L 14.613281 -7.105469 C 14.613281 -7.105469 14.613281 -7.140625 14.582031 -7.171875 L 13.839844 -9.765625 L 12.59375 -9.765625 L 11.820312 -12.359375 L 13.707031 -12.359375 L 12.5625 -16.265625 L 10.070312 -16.265625 L 9.832031 -17.105469 L 12.324219 -17.105469 L 11.550781 -19.699219 L 9.09375 -19.699219 L 8.351562 -22.226562 L 9.597656 -22.226562 L 9.5625 -22.257812 L 10.808594 -22.257812 L 10.101562 -24.785156 L 7.609375 -24.785156 L 6.871094 -27.34375 L 8.082031 -27.34375 L 8.082031 -27.410156 C 7.914062 -27.882812 7.578125 -28.152344 7.105469 -28.152344 L 3.503906 -28.152344 C 2.964844 -28.152344 2.828125 -27.816406 2.796875 -27.648438 C 2.761719 -27.546875 2.761719 -27.445312 2.761719 -27.34375 L 1.515625 -27.34375 C 1.515625 -27.175781 1.550781 -27.007812 1.617188 -26.839844 L 2.222656 -24.785156 L 4.714844 -24.785156 L 5.457031 -22.257812 L 4.210938 -22.257812 L 4.242188 -22.226562 L 2.996094 -22.226562 L 3.738281 -19.699219 L 6.230469 -19.699219 L 7.003906 -17.105469 L 4.511719 -17.105469 L 4.78125 -16.265625 L 7.273438 -16.265625 L 8.417969 -12.359375 L 6.566406 -12.359375 L 7.339844 -9.765625 L 8.585938 -9.765625 L 9.632812 -6.261719 L 7.777344 -6.261719 L 8.484375 -3.871094 L 10.976562 -3.871094 L 11.078125 -3.503906 C 11.144531 -3.332031 11.246094 -3.132812 11.316406 -2.996094 C 11.414062 -2.59375 11.585938 -2.222656 11.820312 -1.886719 L 9.96875 -1.886719 C 10.707031 -0.742188 12.023438 0 13.4375 0 C 14.277344 0 15.085938 -0.234375 15.761719 -0.707031 C 15.960938 -0.808594 16.128906 -0.941406 16.265625 -1.042969 C 16.5 -1.246094 16.738281 -1.550781 16.9375 -1.886719 L 18.824219 -1.886719 C 19.09375 -2.324219 19.363281 -2.863281 19.632812 -3.535156 L 19.734375 -3.871094 L 17.242188 -3.871094 L 18.015625 -6.261719 L 19.867188 -6.261719 L 21.011719 -9.765625 L 19.765625 -9.765625 L 20.609375 -12.359375 L 22.460938 -12.359375 L 23.742188 -16.265625 L 25.457031 -16.265625 L 26.636719 -12.359375 L 24.75 -12.359375 L 25.527344 -9.765625 L 26.773438 -9.765625 L 27.816406 -6.261719 L 25.964844 -6.261719 L 26.671875 -3.871094 L 29.164062 -3.871094 L 29.261719 -3.503906 C 29.332031 -3.332031 29.433594 -3.132812 29.5 -2.996094 C 29.601562 -2.59375 29.800781 -2.222656 30.003906 -1.886719 L 28.152344 -1.886719 C 28.894531 -0.742188 30.207031 0 31.621094 0 C 32.460938 0 33.269531 -0.234375 33.945312 -0.707031 C 34.144531 -0.808594 34.316406 -0.941406 34.449219 -1.042969 C 34.683594 -1.246094 34.921875 -1.550781 35.121094 -1.886719 L 37.007812 -1.886719 C 37.277344 -2.324219 37.546875 -2.863281 37.816406 -3.535156 L 37.917969 -3.871094 L 35.425781 -3.871094 L 36.199219 -6.261719 L 38.085938 -6.261719 L 39.199219 -9.765625 L 37.953125 -9.765625 L 38.792969 -12.359375 L 40.644531 -12.359375 L 41.925781 -16.265625 L 39.433594 -16.265625 L 39.703125 -17.105469 L 42.195312 -17.105469 L 43.003906 -19.699219 L 40.542969 -19.699219 L 41.351562 -22.226562 Z M 34.347656 -17.847656 L 31.351562 -17.847656 L 31.351562 -18.722656 L 34.347656 -18.722656 Z M 36.066406 -22.898438 L 30.507812 -22.898438 L 30.507812 -23.574219 L 36.066406 -23.574219 Z M 16.972656 -23.234375 L 11.652344 -23.234375 L 11.652344 -24.011719 L 16.972656 -24.011719 Z M 16.972656 -23.234375 "/></g></g></g></svg>